<?xml version="1.0" encoding="utf-8"?>
<!-- Generator: Adobe Illustrator 27.4.1, SVG Export Plug-In . SVG Version: 6.00 Build 0)  -->
<svg version="1.1" id="Layer_1" xmlns="http://www.w3.org/2000/svg" xmlns:xlink="http://www.w3.org/1999/xlink" x="0px" y="0px"
	 viewBox="0 0 297 44" style="enable-background:new 0 0 297 44;" xml:space="preserve">
<path style="fill:#6A00BD;" d="M159.1,34v-4.7H171c0.6,0,1.1-0.1,1.5-0.4c0.4-0.3,0.8-0.6,1-1c0.2-0.4,0.4-0.9,0.4-1.3
	c0-0.5-0.1-1-0.3-1.3c-0.2-0.4-0.5-0.7-1-0.9c-0.4-0.2-0.9-0.4-1.4-0.4h-4.8c-1.6,0-3-0.3-4.2-0.8c-1.2-0.5-2.2-1.3-2.9-2.4
	c-0.7-1.1-1.1-2.4-1.1-4.1c0-1.3,0.3-2.5,1-3.6c0.7-1.1,1.5-2,2.7-2.6c1.1-0.7,2.4-1,3.8-1H177v4.7h-10.9c-0.7,0-1.3,0.2-1.8,0.7
	c-0.5,0.5-0.7,1-0.7,1.7c0,0.7,0.2,1.2,0.7,1.7c0.5,0.5,1.1,0.7,1.9,0.7h4.7c1.8,0,3.3,0.3,4.5,0.8c1.3,0.5,2.2,1.4,2.9,2.5
	c0.7,1.1,1,2.5,1,4.1c0,1.3-0.3,2.6-1,3.8c-0.7,1.2-1.6,2.1-2.8,2.8c-1.2,0.7-2.5,1-4,1H159.1z M189.1,10v3.5c0,0.3,0.3,0.6,0.6,0.6
	h11.5c0.2,0,0.4,0,0.6,0.1c0.5,0.1,0.9,0.3,1.2,0.6c0.5,0.4,0.7,1,0.7,1.7V19c0,0.3-0.3,0.6-0.6,0.6h-9.3c-1.3,0-2.5,0.3-3.6,0.8
	c-1.1,0.6-1.9,1.4-2.6,2.4c-0.6,1-1,2.3-1,3.8c0,1.3,0.3,2.6,1,3.7c0.6,1.1,1.5,2,2.6,2.6c1.1,0.7,2.3,1,3.6,1h8.1c3.9,0,7-3.1,7-7
	v-9.8c0-4.3-3.5-7.7-7.7-7.7h-11.5C189.4,9.4,189.1,9.7,189.1,10L189.1,10z M203.8,26.6c0,0.8-0.3,1.4-0.8,1.9
	c-0.3,0.3-0.7,0.5-1.1,0.6c-0.3,0.1-0.5,0.1-0.8,0.1h-5.9c-0.5,0-1-0.1-1.5-0.4s-0.8-0.6-1.1-1.1c-0.3-0.5-0.4-1-0.4-1.5
	c0-0.8,0.3-1.5,0.8-2.1c0.6-0.6,1.3-0.9,2.1-0.9h8c0.3,0,0.6,0.3,0.6,0.6L203.8,26.6L203.8,26.6z M276.5,10v3.5
	c0,0.3,0.3,0.6,0.6,0.6h11.5c0.2,0,0.4,0,0.6,0.1c0.5,0.1,0.9,0.3,1.2,0.6c0.5,0.4,0.7,1,0.7,1.7V19c0,0.3-0.3,0.6-0.6,0.6h-9.3
	c-1.3,0-2.5,0.3-3.6,0.8c-1.1,0.6-1.9,1.4-2.6,2.4c-0.6,1-1,2.3-1,3.8c0,1.3,0.3,2.6,1,3.7c0.6,1.1,1.5,2,2.6,2.6
	c1.1,0.7,2.3,1,3.6,1h8.1c3.9,0,7-3.1,7-7v-9.8c0-4.3-3.5-7.7-7.7-7.7h-11.5C276.8,9.4,276.5,9.7,276.5,10L276.5,10z M291.2,26.6
	c0,0.8-0.3,1.4-0.8,1.9c-0.3,0.3-0.7,0.5-1.1,0.6c-0.3,0.1-0.5,0.1-0.8,0.1h-5.9c-0.5,0-1-0.1-1.5-0.4c-0.4-0.3-0.8-0.6-1.1-1.1
	c-0.3-0.5-0.4-1-0.4-1.5c0-0.8,0.3-1.5,0.8-2.1c0.6-0.6,1.3-0.9,2.1-0.9h8c0.3,0,0.6,0.3,0.6,0.6L291.2,26.6L291.2,26.6z M227,34.6
	c-1.3,0-2.4-0.4-3.4-1.1c-1-0.7-1.7-1.7-2.2-2.8l-7.5-21.2h6l6.4,19c0.1,0.2,0.2,0.4,0.3,0.5c0.1,0.1,0.3,0.1,0.4,0.1
	c0.2,0,0.3,0,0.5-0.1c0.1-0.1,0.2-0.3,0.3-0.5l6.4-19h5.9l-7.6,21.2c-0.4,1.2-1.1,2.1-2.2,2.8C229.4,34.2,228.3,34.6,227,34.6
	L227,34.6z M256.1,34.6c-1.3,0-2.4-0.4-3.4-1.1c-1-0.7-1.7-1.7-2.2-2.8L243,9.4h6l6.4,19c0.1,0.2,0.2,0.4,0.3,0.5
	c0.1,0.1,0.3,0.1,0.4,0.1c0.2,0,0.3,0,0.5-0.1s0.2-0.3,0.3-0.5l6.4-19h5.9l-7.6,21.2c-0.4,1.2-1.1,2.1-2.2,2.8
	C258.6,34.2,257.4,34.6,256.1,34.6L256.1,34.6z M13.2,9c1.9,0,3.6,0.3,5.1,0.9c1.5,0.6,2.8,1.5,3.8,2.6c1.1,1.1,1.9,2.5,2.4,4
	c0.6,1.5,0.8,3.3,0.8,5.1c0,2.4-0.5,4.4-1.4,6.2c-1,1.8-2.3,3.2-4,4.2c-1.7,1-3.7,1.5-5.9,1.5c-1.1,0-2.1-0.2-3.1-0.5
	c-1-0.3-1.9-0.8-2.7-1.4c-0.8-0.6-1.4-1.3-1.9-2.2h0V43H1V21.5c0-2.6,0.5-4.8,1.5-6.7c1-1.9,2.5-3.3,4.3-4.3C8.7,9.5,10.8,9,13.2,9
	L13.2,9z M13.2,13.5c-1.3,0-2.5,0.3-3.5,1c-1,0.7-1.9,1.6-2.4,2.7c-0.6,1.2-0.9,2.5-0.9,4c0,1.5,0.3,2.8,0.9,4
	c0.6,1.2,1.4,2.1,2.4,2.8c1,0.7,2.2,1,3.6,1s2.5-0.3,3.6-1c1-0.7,1.8-1.6,2.4-2.8c0.6-1.2,0.9-2.5,0.9-4c0-1.5-0.3-2.9-0.9-4
	c-0.6-1.2-1.4-2.1-2.4-2.7C15.7,13.8,14.5,13.5,13.2,13.5z M31.1,10.6v3.5c0,0.3,0.3,0.6,0.6,0.6h11.5c0.2,0,0.4,0,0.6,0.1
	c0.5,0.1,0.9,0.3,1.2,0.6c0.5,0.4,0.7,1,0.7,1.7v2.4c0,0.3-0.3,0.6-0.6,0.6h-9.3c-1.3,0-2.5,0.3-3.6,0.8c-1.1,0.6-1.9,1.4-2.6,2.4
	c-0.6,1-1,2.3-1,3.8c0,1.3,0.3,2.6,1,3.7c0.6,1.1,1.5,2,2.6,2.6c1.1,0.7,2.3,1,3.6,1H44c3.8,0,7-3.1,7-7v-9.8c0-4.3-3.5-7.7-7.7-7.7
	H31.7C31.4,10,31.1,10.3,31.1,10.6L31.1,10.6z M45.7,27.2c0,0.8-0.3,1.4-0.8,1.9c-0.3,0.3-0.7,0.5-1.1,0.6c-0.3,0.1-0.5,0.1-0.8,0.1
	h-5.9c-0.5,0-1-0.1-1.5-0.4c-0.4-0.3-0.8-0.6-1.1-1.1c-0.3-0.5-0.4-1-0.4-1.5c0-0.8,0.3-1.5,0.8-2.1c0.6-0.6,1.3-0.9,2.1-0.9h8
	c0.3,0,0.6,0.3,0.6,0.6V27.2L45.7,27.2z M67.3,35c-1.3,0-2.4-0.4-3.4-1.1c-1-0.7-1.7-1.7-2.2-2.8L54.2,9.9h6l6.4,19
	c0.1,0.2,0.2,0.4,0.3,0.5c0.1,0.1,0.3,0.1,0.4,0.1c0.2,0,0.3,0,0.5-0.1c0.1-0.1,0.2-0.3,0.3-0.5l6.4-19h5.9L73,31.1
	c-0.4,1.2-1.1,2.1-2.2,2.8C69.8,34.7,68.6,35,67.3,35L67.3,35z M83.4,34.5V1h5.3v33.5L83.4,34.5L83.4,34.5z M104.9,34.9
	c-2.5,0-4.6-0.6-6.5-1.7c-1.9-1.1-3.4-2.6-4.5-4.5c-1.1-1.9-1.7-4-1.7-6.3c0-2.3,0.6-4.4,1.7-6.3c1.1-1.9,2.6-3.4,4.5-4.5
	c1.9-1.1,4.1-1.7,6.5-1.7s4.6,0.6,6.5,1.7c1.9,1.1,3.4,2.6,4.5,4.4c1.1,1.9,1.7,4,1.7,6.3s-0.6,4.4-1.7,6.3
	c-1.1,1.9-2.6,3.4-4.5,4.5C109.5,34.3,107.3,34.9,104.9,34.9z M104.9,30.3c1.5,0,2.7-0.3,3.8-1c1.1-0.7,1.9-1.6,2.5-2.8
	c0.6-1.2,0.9-2.5,0.9-4c0-1.5-0.3-2.8-0.9-4c-0.6-1.2-1.4-2.1-2.5-2.8c-1.1-0.7-2.4-1-3.8-1s-2.8,0.3-3.8,1
	c-1.1,0.7-1.9,1.6-2.5,2.8c-0.6,1.2-0.9,2.5-0.9,4c0,1.5,0.3,2.8,0.9,4c0.6,1.2,1.4,2.1,2.5,2.8C102.1,30,103.4,30.3,104.9,30.3
	L104.9,30.3z M121.3,34v-4.5h11.3c0.5,0,1-0.1,1.4-0.4s0.7-0.6,1-1c0.2-0.4,0.3-0.8,0.3-1.2c0-0.5-0.1-0.9-0.3-1.3
	c-0.2-0.4-0.5-0.7-0.9-0.9c-0.4-0.2-0.9-0.3-1.4-0.3h-4.6c-1.5,0-2.8-0.2-4-0.7c-1.2-0.5-2.1-1.2-2.8-2.3c-0.7-1-1-2.3-1-3.9
	c0-1.3,0.3-2.4,0.9-3.4c0.6-1,1.5-1.9,2.5-2.5c1.1-0.6,2.3-1,3.6-1h10.9v4.5H128c-0.7,0-1.3,0.2-1.7,0.7c-0.5,0.4-0.7,1-0.7,1.6
	c0,0.6,0.2,1.1,0.7,1.6c0.5,0.5,1.1,0.7,1.8,0.7h4.5c1.7,0,3.1,0.3,4.3,0.8c1.2,0.5,2.1,1.3,2.7,2.3c0.6,1,0.9,2.4,0.9,3.9
	c0,1.3-0.3,2.5-1,3.6c-0.6,1.1-1.5,2-2.6,2.7c-1.1,0.7-2.4,1-3.8,1H121.3z"/>
</svg>
