<svg width="567" height="70" viewBox="0 0 567 70" fill="none" xmlns="http://www.w3.org/2000/svg">
<g filter="url(#filter0_d_11_76)">
<path d="M28.488 69.44C23.432 69.44 19.08 68.544 15.432 66.752C11.784 64.896 9 62.304 7.08 58.976C5.224 55.648 4.296 51.744 4.296 47.264V40.352H16.392V46.784C16.392 50.88 17.512 54.048 19.752 56.288C22.056 58.464 24.968 59.552 28.488 59.552C31.944 59.552 34.824 58.464 37.128 56.288C39.432 54.048 40.584 50.88 40.584 46.784V40.352H52.776V47.264C52.776 51.744 51.816 55.648 49.896 58.976C47.976 62.304 45.192 64.896 41.544 66.752C37.96 68.544 33.608 69.44 28.488 69.44ZM16.392 43.712H4.296V9.72799C4.808 9.6 5.576 9.44 6.6 9.248C7.688 9.056 8.776 8.96 9.864 8.96C12.168 8.96 13.832 9.376 14.856 10.208C15.88 10.976 16.392 12.448 16.392 14.624V43.712ZM52.776 43.808H40.584V9.72799C41.096 9.6 41.896 9.44 42.984 9.248C44.072 9.056 45.16 8.96 46.248 8.96C48.488 8.96 50.12 9.376 51.144 10.208C52.232 10.976 52.776 12.448 52.776 14.624V43.808ZM84.672 41.408L82.272 40.832L63.552 14.816C64 13.408 64.832 12.128 66.048 10.976C67.264 9.76 68.864 9.152 70.848 9.152C72.32 9.152 73.568 9.536 74.592 10.304C75.68 11.072 76.736 12.256 77.76 13.856L91.392 33.92L94.56 36.128L113.856 63.104C113.536 64.768 112.736 66.112 111.456 67.136C110.24 68.16 108.64 68.672 106.656 68.672C105.312 68.672 104.128 68.32 103.104 67.616C102.144 66.912 101.088 65.728 99.936 64.064L84.672 41.408ZM94.08 41.024L90.624 43.328L73.248 68.48C72.864 68.544 72.448 68.576 72 68.576C71.616 68.64 71.232 68.672 70.848 68.672C68.48 68.672 66.656 68.16 65.376 67.136C64.16 66.112 63.552 64.8 63.552 63.2C63.552 61.92 63.872 60.768 64.512 59.744C65.152 58.656 65.952 57.44 66.912 56.096L82.272 36.224L87.264 32.192L103.008 9.72799C103.392 9.6 103.872 9.504 104.448 9.44C105.088 9.312 105.728 9.248 106.368 9.248C108.416 9.248 110.016 9.76 111.168 10.784C112.32 11.808 112.896 13.056 112.896 14.528C112.896 15.744 112.576 16.864 111.936 17.888C111.296 18.912 110.464 20.096 109.44 21.44C106.944 24.704 104.416 27.968 101.856 31.232C99.36 34.432 96.768 37.696 94.08 41.024ZM182.87 38.624C182.87 45.472 181.206 50.656 177.878 54.176C174.55 57.632 169.91 59.36 163.958 59.36C162.55 59.36 161.142 59.328 159.734 59.264C158.326 59.136 157.046 58.944 155.894 58.688V18.848C157.046 18.656 158.23 18.528 159.446 18.464C160.726 18.336 162.07 18.272 163.478 18.272C167.19 18.272 170.486 19.008 173.366 20.48C176.31 21.888 178.614 24.096 180.278 27.104C182.006 30.048 182.87 33.888 182.87 38.624ZM195.35 38.432C195.35 31.648 193.974 26.048 191.222 21.632C188.534 17.216 184.758 13.92 179.894 11.744C175.094 9.504 169.462 8.384 162.998 8.384C160.566 8.384 157.942 8.512 155.126 8.768C152.374 9.024 149.814 9.504 147.446 10.208C146.358 10.592 145.462 11.104 144.758 11.744C144.118 12.384 143.798 13.312 143.798 14.528V61.664C143.798 64.352 145.366 66.24 148.502 67.328C150.934 68.16 153.59 68.672 156.47 68.864C159.35 69.12 161.846 69.248 163.958 69.248C170.294 69.248 175.798 68.128 180.47 65.888C185.142 63.648 188.79 60.256 191.414 55.712C194.038 51.104 195.35 45.344 195.35 38.432ZM207.08 29.408H218.984V67.328C218.536 67.456 217.8 67.616 216.776 67.808C215.752 68 214.696 68.096 213.608 68.096C211.624 68.096 210.024 67.52 208.808 66.368C207.656 65.152 207.08 63.584 207.08 61.664V29.408ZM218.984 48.224L207.08 48.128V16.16C207.08 14.176 207.656 12.608 208.808 11.456C210.024 10.304 211.624 9.72799 213.608 9.72799C214.696 9.72799 215.752 9.824 216.776 10.016C217.8 10.208 218.536 10.368 218.984 10.496V48.224ZM213.608 43.04V33.44H242.504C242.824 33.888 243.112 34.528 243.368 35.36C243.688 36.192 243.848 37.088 243.848 38.048C243.848 39.712 243.464 40.96 242.696 41.792C241.928 42.624 240.872 43.04 239.528 43.04H213.608ZM213.608 68.096V58.4H245.864C246.12 58.848 246.376 59.488 246.632 60.32C246.952 61.152 247.112 62.08 247.112 63.104C247.112 64.768 246.728 66.016 245.96 66.848C245.192 67.68 244.136 68.096 242.792 68.096H213.608ZM213.608 19.52V9.72799H245.384C245.704 10.176 245.992 10.816 246.248 11.648C246.504 12.48 246.632 13.376 246.632 14.336C246.632 16 246.248 17.28 245.48 18.176C244.776 19.072 243.72 19.52 242.312 19.52H213.608ZM275.822 59.552C279.534 59.552 282.286 58.816 284.078 57.344C285.87 55.808 286.766 53.92 286.766 51.68C286.766 49.696 286.062 48.096 284.654 46.88C283.31 45.6 281.23 44.544 278.414 43.712L272.174 41.792C268.974 40.704 266.158 39.488 263.726 38.144C261.358 36.8 259.502 35.072 258.158 32.96C256.878 30.784 256.238 28.128 256.238 24.992C256.238 19.808 258.158 15.712 261.998 12.704C265.902 9.696 271.214 8.192 277.934 8.192C281.518 8.192 284.686 8.576 287.438 9.344C290.254 10.048 292.462 11.04 294.062 12.32C295.726 13.6 296.558 15.104 296.558 16.832C296.558 18.048 296.238 19.136 295.598 20.096C295.022 20.992 294.286 21.728 293.39 22.304C291.918 21.216 289.902 20.288 287.342 19.52C284.782 18.688 281.998 18.272 278.99 18.272C275.662 18.272 273.102 18.88 271.31 20.096C269.518 21.312 268.622 22.944 268.622 24.992C268.622 26.656 269.23 28 270.446 29.024C271.726 30.048 273.646 30.944 276.206 31.712L281.774 33.344C287.278 35.008 291.566 37.28 294.638 40.16C297.71 42.976 299.246 46.848 299.246 51.776C299.246 57.024 297.23 61.28 293.198 64.544C289.23 67.808 283.534 69.44 276.109 69.44C272.206 69.44 268.75 69.024 265.742 68.192C262.734 67.36 260.334 66.208 258.542 64.736C256.814 63.264 255.95 61.6 255.95 59.744C255.95 58.336 256.398 57.12 257.294 56.096C258.19 55.072 259.15 54.304 260.174 53.792C261.838 55.2 263.982 56.512 266.606 57.728C269.23 58.944 272.302 59.552 275.822 59.552ZM310.394 29.504H322.49V67.808C321.978 68 321.21 68.16 320.186 68.288C319.162 68.48 318.074 68.576 316.922 68.576C314.618 68.576 312.954 68.16 311.93 67.328C310.906 66.432 310.394 64.96 310.394 62.912V29.504ZM322.49 43.52H310.394V9.72799C310.906 9.6 311.706 9.44 312.794 9.248C313.882 9.056 314.97 8.96 316.058 8.96C318.298 8.96 319.93 9.376 320.954 10.208C321.978 10.976 322.49 12.448 322.49 14.624V43.52ZM386.83 39.68V60.032C386.83 61.568 386.478 62.784 385.774 63.68C385.134 64.576 384.078 65.408 382.606 66.176C380.942 67.072 378.542 67.84 375.406 68.48C372.334 69.12 369.23 69.44 366.094 69.44C360.014 69.44 354.574 68.384 349.774 66.272C345.038 64.096 341.294 60.768 338.542 56.288C335.79 51.744 334.414 45.952 334.414 38.912C334.414 32.128 335.822 26.464 338.638 21.92C341.454 17.376 345.198 13.952 349.87 11.648C354.606 9.344 359.822 8.192 365.518 8.192C369.358 8.192 372.686 8.608 375.502 9.44C378.382 10.272 380.59 11.36 382.126 12.704C383.726 14.048 384.526 15.52 384.526 17.12C384.526 18.336 384.174 19.424 383.47 20.384C382.83 21.344 382.094 22.08 381.262 22.592C379.534 21.504 377.486 20.512 375.118 19.616C372.75 18.656 369.838 18.176 366.382 18.176C362.67 18.176 359.31 18.976 356.302 20.576C353.358 22.176 351.054 24.544 349.39 27.68C347.726 30.752 346.894 34.496 346.894 38.912C346.894 43.648 347.726 47.552 349.39 50.624C351.054 53.632 353.358 55.872 356.302 57.344C359.246 58.816 362.574 59.552 366.286 59.552C368.142 59.552 369.838 59.392 371.374 59.072C372.974 58.752 374.222 58.368 375.118 57.92V44.288H362.638C362.382 43.84 362.094 43.2 361.774 42.368C361.518 41.472 361.39 40.576 361.39 39.68C361.39 37.952 361.774 36.704 362.542 35.936C363.31 35.104 364.366 34.688 365.71 34.688H381.838C383.31 34.688 384.494 35.136 385.39 36.032C386.35 36.928 386.83 38.144 386.83 39.68ZM400.017 22.688L410.865 22.4C411.121 24.832 411.313 27.392 411.441 30.08C411.633 32.768 411.729 35.424 411.729 38.048C411.793 40.672 411.825 43.2 411.825 45.632V67.904C411.377 68.032 410.609 68.16 409.521 68.288C408.497 68.48 407.473 68.576 406.449 68.576C404.145 68.576 402.481 68.192 401.457 67.424C400.497 66.592 400.017 65.152 400.017 63.104V22.688ZM449.457 54.848L438.513 55.136C438.001 50.208 437.713 45.408 437.649 40.736C437.585 36 437.553 31.424 437.553 27.008V9.72799C438.129 9.6 438.897 9.44 439.857 9.248C440.881 9.056 441.969 8.96 443.121 8.96C445.361 8.96 446.961 9.376 447.921 10.208C448.945 11.04 449.457 12.448 449.457 14.432V54.848ZM449.457 50.912V66.464C448.689 67.104 447.665 67.616 446.385 68C445.105 68.448 443.633 68.672 441.969 68.672C439.985 68.672 438.193 68.352 436.593 67.712C435.057 67.072 433.745 65.664 432.657 63.488L418.545 38.24C417.777 36.704 416.945 35.104 416.049 33.44C415.217 31.776 414.417 30.144 413.649 28.544C412.881 26.944 412.177 25.472 411.537 24.128L400.017 26.816V11.744C400.721 10.848 401.745 10.176 403.089 9.72799C404.497 9.28 406.001 9.056 407.601 9.056C409.521 9.056 411.281 9.376 412.881 10.016C414.481 10.656 415.825 12.032 416.913 14.144L431.025 39.392C431.857 40.928 432.689 42.528 433.521 44.192C434.417 45.856 435.217 47.488 435.921 49.088C436.689 50.688 437.361 52.16 437.937 53.504L449.457 50.912ZM464.236 29.408H476.14V67.328C475.692 67.456 474.956 67.616 473.932 67.808C472.908 68 471.852 68.096 470.764 68.096C468.78 68.096 467.18 67.52 465.964 66.368C464.812 65.152 464.236 63.584 464.236 61.664V29.408ZM476.14 48.224L464.236 48.128V16.16C464.236 14.176 464.812 12.608 465.964 11.456C467.18 10.304 468.78 9.72799 470.764 9.72799C471.852 9.72799 472.908 9.824 473.932 10.016C474.956 10.208 475.692 10.368 476.14 10.496V48.224ZM470.764 43.04V33.44H499.66C499.98 33.888 500.268 34.528 500.524 35.36C500.844 36.192 501.004 37.088 501.004 38.048C501.004 39.712 500.62 40.96 499.852 41.792C499.084 42.624 498.028 43.04 496.684 43.04H470.764ZM470.764 68.096V58.4H503.02C503.276 58.848 503.532 59.488 503.788 60.32C504.108 61.152 504.268 62.08 504.268 63.104C504.268 64.768 503.884 66.016 503.116 66.848C502.348 67.68 501.292 68.096 499.948 68.096H470.764ZM470.764 19.52V9.72799H502.54C502.86 10.176 503.148 10.816 503.404 11.648C503.66 12.48 503.788 13.376 503.788 14.336C503.788 16 503.404 17.28 502.636 18.176C501.932 19.072 500.876 19.52 499.468 19.52H470.764ZM528.082 37.952H536.05C539.826 37.952 542.834 37.12 545.074 35.456C547.314 33.792 548.434 31.328 548.434 28.064C548.434 24.864 547.314 22.432 545.074 20.768C542.834 19.104 539.538 18.272 535.186 18.272C533.906 18.272 532.658 18.336 531.442 18.464C530.226 18.528 529.106 18.656 528.082 18.848V37.952ZM536.914 47.456H515.986V14.528C515.986 13.376 516.306 12.48 516.946 11.84C517.65 11.2 518.546 10.688 519.634 10.304C521.682 9.664 524.082 9.184 526.834 8.86399C529.65 8.54399 532.498 8.384 535.378 8.384C543.826 8.384 550.13 10.144 554.29 13.664C558.514 17.12 560.626 21.888 560.626 27.968C560.626 31.808 559.634 35.2 557.65 38.144C555.73 41.088 553.01 43.392 549.49 45.056C545.97 46.656 541.778 47.456 536.914 47.456ZM535.282 44.384L545.65 41.408C547.25 43.52 548.882 45.664 550.546 47.84C552.274 49.952 553.906 52.032 555.442 54.08C557.042 56.064 558.45 57.888 559.666 59.552C560.946 61.216 561.938 62.592 562.642 63.68C562.194 65.28 561.33 66.528 560.05 67.424C558.834 68.32 557.49 68.768 556.018 68.768C554.098 68.768 552.594 68.352 551.506 67.52C550.482 66.624 549.49 65.44 548.53 63.968L535.282 44.384ZM515.986 43.232H528.178V67.808C527.666 68 526.866 68.16 525.778 68.288C524.754 68.48 523.666 68.576 522.514 68.576C520.21 68.576 518.546 68.16 517.522 67.328C516.498 66.432 515.986 64.96 515.986 62.912V43.232Z" fill="#F5F3ED"/>
</g>
<defs>
<filter id="filter0_d_11_76" x="0.296021" y="0.192001" width="566.346" height="69.248" filterUnits="userSpaceOnUse" color-interpolation-filters="sRGB">
<feFlood flood-opacity="0" result="BackgroundImageFix"/>
<feColorMatrix in="SourceAlpha" type="matrix" values="0 0 0 0 0 0 0 0 0 0 0 0 0 0 0 0 0 0 127 0" result="hardAlpha"/>
<feOffset dy="-4"/>
<feGaussianBlur stdDeviation="2"/>
<feComposite in2="hardAlpha" operator="out"/>
<feColorMatrix type="matrix" values="0 0 0 0 0 0 0 0 0 0 0 0 0 0 0 0 0 0 0.25 0"/>
<feBlend mode="normal" in2="BackgroundImageFix" result="effect1_dropShadow_11_76"/>
<feBlend mode="normal" in="SourceGraphic" in2="effect1_dropShadow_11_76" result="shape"/>
</filter>
</defs>
</svg>
